<?xml version="1.0" encoding="UTF-8"?>
<!-- Generator: Adobe Illustrator 23.0.4, SVG Export Plug-In . SVG Version: 6.00 Build 0)  -->
<svg version="1.1" xmlns="http://www.w3.org/2000/svg" xmlns:xlink="http://www.w3.org/1999/xlink" x="0px" y="0px" viewBox="0 0 1080 1080" style="enable-background:new 0 0 1080 1080;" xml:space="preserve">
<style type="text/css">
	.st7{fill:#121E48;}
	.st10{fill:url(#SVGID_1_);}
</style>
<g id="logo">
	<g>
		<path id="XMLID_21_" class="st7" d="M799.6,496.7c25.8,0,45,18.9,45,43.3c0,24.4-19.2,43.3-45,43.3c-25.8,0-45-18.9-45-43.3    C754.6,515.6,773.8,496.7,799.6,496.7z M799.6,565.4c14.1,0,24.6-11.1,24.6-25.4s-10.4-25.4-24.6-25.4    c-14.1,0-24.6,11.1-24.6,25.4S785.4,565.4,799.6,565.4z"/>
		<path id="XMLID_19_" class="st7" d="M863,496.7H874c5,0,9.1,4.1,9.1,9.1v1.6l0.3,0.2c6.9-6.2,16.2-10.9,27.1-10.9    c8.9,0,16.6,3,21.7,8.7c4.8,5.2,7,12,7,24.2v53.6h-11.1c-5.1,0-9.2-4.1-9.2-9.2v-41c0-7.4-1-11.4-3.3-14c-2.5-3-6.2-4.5-10.9-4.5    c-8,0-16.4,4.7-21.6,10.4v58.3h-11.1c-5.1,0-9.2-4.1-9.2-9.2V496.7z"/>
		<path id="XMLID_10_" class="st7" d="M680.1,545.6c2.5,13.8,13.5,20.9,27.5,20.9c4.5,0,8.8-0.7,13-2c7.6-2.3,15.3,3.1,15.3,11.1v0    c-7.7,4.9-19.5,7.7-30.3,7.7c-26.6,0-46.1-17.2-46.1-43.1c0-26.3,19.7-43.5,42.3-43.5c20.5,0,38.7,14,38.7,40.6    c0,2.7-0.2,6.1-0.5,8.3H680.1z M680.1,531.4h41.3c-1.5-12.5-10.6-18.2-19.9-18.2C692.1,513.2,682.7,518.9,680.1,531.4z"/>
		<path id="XMLID_7_" class="st7" d="M424.5,496.7h39.4c26.5,0,45.9,19.4,45.9,46.2c0,26.3-18.8,43.4-41.2,43.4    c-9.2,0-17.3-3-22.7-6.5l-0.3,0.2v42c0,5.4-4.4,9.8-9.8,9.8h-11.3V496.7z M445.6,514.3v47.8c4.9,3.5,11.2,6.1,18.5,6.1    c15.2,0,24.4-11.3,24.4-26.3c0-15.2-9.4-27.6-25.3-27.6H445.6z"/>
		<path class="st7" d="M570.2,612c0-7.8,7.4-13.3,14.9-11.2c3.9,1.1,7.8,1.7,11.7,1.7c14.1,0,23.4-7.9,23.4-21.9v-5.2l-0.3-0.3    c-5.4,3.9-13.3,6.1-21.1,6.1c-21.4,0-39.6-16.3-39.6-40.9c0-23.9,16.7-43.5,42.9-43.5c8.3,0,38.4,0,38.4,0v83.7    c0,25.1-17.2,39.9-43.1,39.9c-10.4,0-20.2-2.5-27.3-6.1V612z M603.2,564.1c6.1,0,12.6-2,17-5.2v-40.1c-4.4-2.5-10.8-4.4-17-4.4    c-14.8,0-23.4,11.3-23.4,24.8C579.8,553.5,589,564.1,603.2,564.1z"/>
		<g>
			<path id="XMLID_1307_" class="st7" d="M524.5,496.8h11c5,0,9.1,4.1,9.1,9.1v77.4h-11c-5,0-9.1-4.1-9.1-9.1V496.8z"/>
			<path id="XMLID_1288_" class="st7" d="M534.6,462.7L534.6,462.7c5.6,0,10.1,4.5,10.1,10.1v0.3c0,5.6-4.5,10.1-10.1,10.1h-10.1     v-10.4C524.5,467.2,529,462.7,534.6,462.7z"/>
		</g>
		<linearGradient id="SVGID_1_" gradientUnits="userSpaceOnUse" x1="121.6305" y1="420.2589" x2="382.7784" y2="681.4067">
			<stop offset="0" style="stop-color:#BE4DF7"/>
			<stop offset="1" style="stop-color:#7873EE"/>
		</linearGradient>
		<path class="st10" d="M381.2,526.6c-1.3,56-47.1,101.1-103.4,101.1H275c30.2-9.5,52.1-37.8,52.1-71.1c0-22.7-10.2-43-26.2-56.7    v-38.5v-22.2c0-16.3,13.4-29.5,29.8-29.1c13.4,0.3,24.7,9.9,27.6,22.5c0,0,7.9,5.5,10.8,9.4h0l-1.3,0c0,0-0.1,0-0.1,0    c-4.7-0.1-8.8,2.9-10.4,7.3c-1.3,3.7-3.4,7-6,9.8c-3.1,3.4-2.6,8.7,1.2,11.3c17,11.4,28.3,30.7,28.7,52.6    C381.3,524.3,381.2,525.5,381.2,526.6z M276.5,484.9L276.5,484.9L168.7,592.7c-10.7,10.7-10.7,28.1,0,38.8h0l107.9-107.9    C287.2,512.9,287.2,495.6,276.5,484.9z M205.3,605.2c12.2,11.9,28.9,19.2,47.2,19.2c37.4,0,67.8-30.4,67.8-67.8    c0-18.3-7.3-35-19.2-47.2L205.3,605.2z M140.7,669.8c26.2-1.3,51.1-12.3,69.7-30.9l5.1-5.1c3.9-3.9,9.1-6.1,14.6-6.1    c-11.2-3.6-21.3-9.7-29.6-17.8L140.7,669.8z"/>
	</g>
</g>
</svg>