<svg xmlns="http://www.w3.org/2000/svg" viewBox="0 0 950 550" width="950" height="550">
	<defs>
		<linearGradient id="grd1" gradientUnits="userSpaceOnUse"  x1="56.63" y1="155.259" x2="317.778" y2="416.407">
			<stop offset="0" stop-color="#be4df7"  />
			<stop offset="1" stop-color="#7873ee"  />
		</linearGradient>
	</defs>
	<style>
		tspan { white-space:pre }
		.shp0 { fill: #121e48 } 
		.shp1 { fill: url(#grd1) } 
	</style>
	<g id="logo">
		<g id="Layer">
			<path id="XMLID_21_" fill-rule="evenodd" class="shp0" d="M734.6 231.7C760.4 231.7 779.6 250.6 779.6 275C779.6 299.4 760.4 318.3 734.6 318.3C708.8 318.3 689.6 299.4 689.6 275C689.6 250.6 708.8 231.7 734.6 231.7ZM734.6 300.4C748.7 300.4 759.2 289.3 759.2 275C759.2 260.7 748.8 249.6 734.6 249.6C720.5 249.6 710 260.7 710 275C710 289.3 720.4 300.4 734.6 300.4Z" />
			<path id="XMLID_19_" class="shp0" d="M798 231.7L809 231.7C814 231.7 818.1 235.8 818.1 240.8L818.1 242.4L818.4 242.6C825.3 236.4 834.6 231.7 845.5 231.7C854.4 231.7 862.1 234.7 867.2 240.4C872 245.6 874.2 252.4 874.2 264.6L874.2 318.2L863.1 318.2C858 318.2 853.9 314.1 853.9 309L853.9 268C853.9 260.6 852.9 256.6 850.6 254C848.1 251 844.4 249.5 839.7 249.5C831.7 249.5 823.3 254.2 818.1 259.9L818.1 318.2L807 318.2C801.9 318.2 797.8 314.1 797.8 309L797.8 231.7L798 231.7Z" />
			<path id="XMLID_10_" fill-rule="evenodd" class="shp0" d="M615.1 280.6C617.6 294.4 628.6 301.5 642.6 301.5C647.1 301.5 651.4 300.8 655.6 299.5C663.2 297.2 670.9 302.6 670.9 310.6C663.2 315.5 651.4 318.3 640.6 318.3C614 318.3 594.5 301.1 594.5 275.2C594.5 248.9 614.2 231.7 636.8 231.7C657.3 231.7 675.5 245.7 675.5 272.3C675.5 275 675.3 278.4 675 280.6L615.1 280.6ZM615.1 266.4L656.4 266.4C654.9 253.9 645.8 248.2 636.5 248.2C627.1 248.2 617.7 253.9 615.1 266.4Z" />
			<path id="XMLID_7_" fill-rule="evenodd" class="shp0" d="M398.9 231.7C425.4 231.7 444.8 251.1 444.8 277.9C444.8 304.2 426 321.3 403.6 321.3C394.4 321.3 386.3 318.3 380.9 314.8L380.6 315L380.6 357C380.6 362.4 376.2 366.8 370.8 366.8L359.5 366.8L359.5 231.7L398.9 231.7ZM380.6 249.3L380.6 297.1C385.5 300.6 391.8 303.2 399.1 303.2C414.3 303.2 423.5 291.9 423.5 276.9C423.5 261.7 414.1 249.3 398.2 249.3L380.6 249.3Z" />
			<path id="Layer" fill-rule="evenodd" class="shp0" d="M505.2 347C505.2 339.2 512.6 333.7 520.1 335.8C524 336.9 527.9 337.5 531.8 337.5C545.9 337.5 555.2 329.6 555.2 315.6L555.2 310.4L554.9 310.1C549.5 314 541.6 316.2 533.8 316.2C512.4 316.2 494.2 299.9 494.2 275.3C494.2 251.4 510.9 231.8 537.1 231.8C545.4 231.8 575.5 231.8 575.5 231.8L575.5 315.5C575.5 340.6 558.3 355.4 532.4 355.4C522 355.4 512.2 352.9 505.1 349.3L505.1 347L505.2 347ZM538.2 299.1C544.3 299.1 550.8 297.1 555.2 293.9L555.2 253.8C550.8 251.3 544.4 249.4 538.2 249.4C523.4 249.4 514.8 260.7 514.8 274.2C514.8 288.5 524 299.1 538.2 299.1Z" />
			<g id="Layer">
				<path id="XMLID_1307_" class="shp0" d="M459.5 231.8L470.5 231.8C475.5 231.8 479.6 235.9 479.6 240.9L479.6 318.3L468.6 318.3C463.6 318.3 459.5 314.2 459.5 309.2L459.5 231.8Z" />
				<path id="XMLID_1288_" class="shp0" d="M469.6 197.7L469.6 197.7C475.2 197.7 479.7 202.2 479.7 207.8L479.7 208.1C479.7 213.7 475.2 218.2 469.6 218.2L459.5 218.2L459.5 207.8C459.5 202.2 464 197.7 469.6 197.7Z" />
			</g>
			<path id="Layer" fill-rule="evenodd" class="shp1" d="M316.2 261.6C314.9 317.6 269.1 362.7 212.8 362.7L210 362.7C240.2 353.2 262.1 324.9 262.1 291.6C262.1 268.9 251.9 248.6 235.9 234.9L235.9 174.2C235.9 157.9 249.3 144.7 265.7 145.1C279.1 145.4 290.4 155 293.3 167.6C293.3 167.6 301.2 173.1 304.1 177L302.7 177C298 176.9 293.9 179.9 292.3 184.3C291 188 288.9 191.3 286.3 194.1C283.2 197.5 283.7 202.8 287.5 205.4C304.5 216.8 315.8 236.1 316.2 258C316.3 259.3 316.2 260.5 316.2 261.6ZM211.6 258.6L103.7 366.5C93 355.8 93 338.4 103.7 327.7L211.5 219.9C222.2 230.6 222.2 247.9 211.6 258.6ZM236.1 244.4C248 256.6 255.3 273.3 255.3 291.6C255.3 329 224.9 359.4 187.5 359.4C169.2 359.4 152.5 352.1 140.3 340.2L236.1 244.4ZM135.5 344.9C143.8 353 153.9 359.1 165.1 362.7C159.6 362.7 154.4 364.9 150.5 368.8L145.4 373.9C126.8 392.5 101.9 403.5 75.7 404.8L135.5 344.9Z" />
		</g>
	</g>
</svg>