<?xml version="1.0" encoding="UTF-8"?>
<!-- Generator: Adobe Illustrator 23.0.4, SVG Export Plug-In . SVG Version: 6.00 Build 0)  -->
<svg version="1.1" id="logo" xmlns="http://www.w3.org/2000/svg" xmlns:xlink="http://www.w3.org/1999/xlink" x="0px" y="0px" viewBox="0 0 240.5 259.6" style="enable-background:new 0 0 240.5 259.6;" xml:space="preserve">
<style type="text/css">
	.st0{fill:url(#SVGID_1_);}
</style>
<linearGradient id="SVGID_1_" gradientUnits="userSpaceOnUse" x1="-19.0905" y1="10.0469" x2="242.0574" y2="271.1947">
	<stop offset="0" style="stop-color:#BE4DF7"/>
	<stop offset="1" style="stop-color:#7873EE"/>
</linearGradient>
<path class="st0" d="M240.5,116.4c-1.3,56-47.1,101.1-103.4,101.1h-2.8c30.2-9.5,52.1-37.8,52.1-71.1c0-22.7-10.2-43-26.2-56.7V51.3  V29.1c0-16.3,13.4-29.5,29.8-29.1c13.4,0.3,24.7,9.9,27.6,22.5c0,0,7.9,5.5,10.8,9.4l0,0l-1.3,0c0,0-0.1,0-0.1,0  c-4.7-0.1-8.8,2.9-10.4,7.3c-1.3,3.7-3.4,7-6,9.8c-3.1,3.4-2.6,8.7,1.2,11.3c17,11.4,28.3,30.7,28.7,52.6  C240.5,114.1,240.5,115.2,240.5,116.4z M135.8,74.7L135.8,74.7L27.9,182.5c-10.7,10.7-10.7,28.1,0,38.8l0,0l107.9-107.9  C146.5,102.7,146.5,85.4,135.8,74.7z M64.6,195c12.2,11.9,28.9,19.2,47.2,19.2c37.4,0,67.8-30.4,67.8-67.8c0-18.3-7.3-35-19.2-47.2  L64.6,195z M0,259.6c26.2-1.3,51.1-12.3,69.7-30.9l5.1-5.1c3.9-3.9,9.1-6.1,14.6-6.1c-11.2-3.6-21.3-9.7-29.6-17.8L0,259.6z"/>
</svg>